<svg xmlns="http://www.w3.org/2000/svg" xmlns:xlink="http://www.w3.org/1999/xlink" width="535" height="535" viewBox="0 0 501.6 501.6"><defs><linearGradient id="a"><stop offset="0" style="stop-color:#699ad7;stop-opacity:1"/><stop offset=".2" style="stop-color:#7eb1dd;stop-opacity:1"/><stop offset="1" style="stop-color:#7ebae4;stop-opacity:1"/></linearGradient><linearGradient id="b"><stop offset="0" style="stop-color:#415e9a;stop-opacity:1"/><stop offset=".2" style="stop-color:#4a6baf;stop-opacity:1"/><stop offset="1" style="stop-color:#5277c3;stop-opacity:1"/></linearGradient><linearGradient xlink:href="#a" id="c" x1="200.6" x2="290.1" y1="351.4" y2="506.2" gradientTransform="translate(70.7 -1055.2)" gradientUnits="userSpaceOnUse"/><linearGradient xlink:href="#b" id="e" x1="-584.2" x2="-496.3" y1="782.3" y2="937.7" gradientTransform="translate(864.7 -1491.3)" gradientUnits="userSpaceOnUse"/></defs><g style="display:inline;opacity:1"><g style="stroke-width:1.00006" transform="matrix(1 0 0 1 -156.5 966.5)"><path id="d" d="m309.5-710.4 122.2 211.7-56.1.5L343-555 310-498.5h-27.9L268-523.2l46.8-80.5-33.2-57.8z" style="opacity:1;fill:url(#c);fill-opacity:1;fill-rule:evenodd;stroke:none;stroke-width:3.00018;stroke-linecap:butt;stroke-linejoin:round;stroke-miterlimit:4;stroke-dasharray:none;stroke-opacity:1"/><use xlink:href="#d" width="100%" height="100%" style="stroke-width:1.00006" transform="rotate(60 407.1 -715.8)"/><use xlink:href="#d" width="100%" height="100%" style="stroke-width:1.00006" transform="rotate(-60 407.3 -715.7)"/><use xlink:href="#d" width="100%" height="100%" style="stroke-width:1.00006" transform="rotate(180 407.4 -715.8)"/><path id="f" d="m309.5-710.4 122.2 211.7-56.1.5L343-555 310-498.5h-27.9L268-523.2l46.8-80.5-33.2-57.8z" style="color:#000;clip-rule:nonzero;display:inline;overflow:visible;visibility:visible;opacity:1;isolation:auto;mix-blend-mode:normal;color-interpolation:sRGB;color-interpolation-filters:linearRGB;solid-color:#000;solid-opacity:1;fill:url(#e);fill-opacity:1;fill-rule:evenodd;stroke:none;stroke-width:3.00018;stroke-linecap:butt;stroke-linejoin:round;stroke-miterlimit:4;stroke-dasharray:none;stroke-dashoffset:0;stroke-opacity:1;color-rendering:auto;image-rendering:auto;shape-rendering:auto;text-rendering:auto;enable-background:accumulate"/><use xlink:href="#f" width="100%" height="100%" style="display:inline;stroke-width:1.00006" transform="rotate(120 407.3 -716)"/><use xlink:href="#f" width="100%" height="100%" style="display:inline;stroke-width:1.00006" transform="rotate(-120 407.3 -715.9)"/></g></g></svg>